<?xml version="1.0" encoding="UTF-8" standalone="no"?>
<svg width="51px" height="49px" viewBox="0 0 51 49" version="1.1" xmlns="http://www.w3.org/2000/svg" xmlns:xlink="http://www.w3.org/1999/xlink" xmlns:sketch="http://www.bohemiancoding.com/sketch/ns">
    <!-- Generator: Sketch 3.3.2 (12043) - http://www.bohemiancoding.com/sketch -->
    <title>noun_52714_cc</title>
    <desc>Created with Sketch.</desc>
    <defs></defs>
    <g id="Page-1" stroke="none" stroke-width="1" fill="none" fill-rule="evenodd" sketch:type="MSPage">
        <g id="noun_52714_cc" sketch:type="MSLayerGroup" fill="#E3E3E3">
            <path d="M17.622,0.027 L17.622,4.748 L45.946,4.748 L45.946,44.087 L17.622,44.087 L17.622,48.808 L50.667,48.808 L50.667,0.028 L17.622,0.028 L17.622,0.027 Z M9.361,17.681 C9.287,17.703 9.194,17.75 9.116,17.829 L0.952,23.927 C0.637,24.242 0.637,24.596 0.952,24.91 L9.116,31.008 C9.431,31.323 9.755,31.186 9.755,30.712 L9.755,26.778 L33.358,26.778 L33.358,22.057 L9.754,22.057 L9.754,18.123 C9.754,17.769 9.583,17.615 9.361,17.681 L9.361,17.681 Z" id="Shape" sketch:type="MSShapeGroup"></path>
        </g>
    </g>
</svg>