<?xml version="1.0" encoding="UTF-8" standalone="no"?>
<svg width="82px" height="86px" viewBox="0 0 82 86" version="1.1" xmlns="http://www.w3.org/2000/svg" xmlns:xlink="http://www.w3.org/1999/xlink" xmlns:sketch="http://www.bohemiancoding.com/sketch/ns">
    <!-- Generator: Sketch 3.3.2 (12043) - http://www.bohemiancoding.com/sketch -->
    <title>noun_64533_cc</title>
    <desc>Created with Sketch.</desc>
    <defs></defs>
    <g id="Page-1" stroke="none" stroke-width="1" fill="none" fill-rule="evenodd" sketch:type="MSPage">
        <g id="noun_64533_cc" sketch:type="MSLayerGroup" fill="#E3E3E3">
            <g id="Group" transform="translate(0.000000, 0.637820)" sketch:type="MSShapeGroup">
                <path d="M41.21875,0.25 C29.478578,0.25 19.875,9.8158 19.875,21.5625 C19.875,32.03539 27.497659,40.72296 37.46875,42.5 C16.882345,44.4338 0.6875,61.7218 0.6875,82.9688 L0.6875,85.0625 L2.78125,85.0625 L79.625,85.0625 L81.71875,85.0625 L81.71875,82.9688 C81.71875,62.2016 66.268277,45.1957 46.34375,42.625 L46.34375,42.1875 C55.608289,39.87245 62.5,31.5329 62.5,21.5625 C62.5,9.81593 52.965304,0.25 41.21875,0.25 L41.21875,0.25 Z M41.21875,4.46875 C50.698938,4.46875 58.3125,12.08227 58.3125,21.5625 C58.3125,31.04225 50.692015,38.6875 41.21875,38.6875 C31.746134,38.6875 24.09375,31.03947 24.09375,21.5625 C24.09375,12.09042 31.747658,4.46875 41.21875,4.46875 L41.21875,4.46875 Z M36.0625,46.8438 L36.0625,47.75 L36.0625,50.0938 L36.0625,53.7188 L37.96875,52.625 L36.6875,58.9688 L34.21875,71.3125 L34,72.375 L34.71875,73.1562 L37.1875,75.875 L37.21875,75.875 L39.6875,78.5625 L41.21875,80.2188 L42.78125,78.5312 L45.21875,75.875 L45.25,75.875 L47.71875,73.1562 L48.4375,72.375 L48.21875,71.3125 L45.75,58.9688 L44.5,52.6562 L46.34375,53.7188 L46.34375,50.0938 L46.34375,47.75 L46.34375,46.8438 C63.283567,49.2752 76.318788,63.339 77.3125,80.875 L5.09375,80.875 C6.08773,63.3425 19.131517,49.279 36.0625,46.8438 L36.0625,46.8438 Z" id="Shape"></path>
            </g>
        </g>
    </g>
</svg>