<?xml version="1.0" encoding="UTF-8" standalone="no"?>
<svg width="401px" height="399px" viewBox="0 0 401 399" version="1.1" xmlns="http://www.w3.org/2000/svg" xmlns:xlink="http://www.w3.org/1999/xlink" xmlns:sketch="http://www.bohemiancoding.com/sketch/ns">
    <!-- Generator: Sketch 3.3.2 (12043) - http://www.bohemiancoding.com/sketch -->
    <title>noun_40262_cc</title>
    <desc>Created with Sketch.</desc>
    <defs></defs>
    <g id="Page-1" stroke="none" stroke-width="1" fill="none" fill-rule="evenodd" sketch:type="MSPage">
        <g id="noun_40262_cc" sketch:type="MSLayerGroup" fill="#E3E3E3">
            <g id="Page-1" sketch:type="MSShapeGroup">
                <g id="noun_40262_cc">
                    <path d="M343.244,52 L267.931,52 L201.263,0.297 L134.671,52 L134.144,52 L56,52 L56,112.144 L0,155.929 L0,399 L401,399 L401,155.753 L343.041,110.526 L343.244,52 L343.244,52 Z M26.733,159.873 L56,137.151 L56,175.828 L26.733,159.873 L26.733,159.873 Z M76,121.815 L76,116.98 L76,72 L134.144,72 L141.439,72 L261.17,72 L264.55,72 L323.59,72 L323.815,118 L323,118 L323,187.924 L200.652,254.506 L76,186.595 L76,121.815 L76,121.815 Z M343,135.232 L374.769,159.869 L343,177.168 L343,135.232 L343,135.232 Z M201.27,25.299 L235.7,52 L166.878,52 L201.27,25.299 L201.27,25.299 Z M20,379 L20,178.349 L200.498,276.998 L381,178.454 L381,379 L20,379 L20,379 Z" id="Shape"></path>
                </g>
            </g>
        </g>
    </g>
</svg>